# xmcd
#
# Track frame offsets: 
#        150
#        14786
#        28011
#        44039
#        55340
#        86349
#        102831
#        120093
#        135349
#        147191
#        166783
#        179618
#        198687
#        216093
#
# Disc length: 3110 seconds
#
# Revision: 7
# Processed by: cddbd v1.5.2PL0 Copyright (c) Steve Scherf et al.
# Submitted via: ExactAudioCopyFreeDBPlugin 1.0
#
DISCID=c30c240e
DTITLE=Buddy and Julie Miller - Love Snuck Up
DYEAR=2004
DGENRE=Country
TTITLE0=You Make My Heart Beat Too Fast
TTITLE1=Wallflower
TTITLE2=Little Darlin'
TTITLE3=You're Running Wild
TTITLE4=Dirty Water
TTITLE5=Draggin' the River
TTITLE6=Keep Your Distance
TTITLE7=In Mermory of My Heart
TTITLE8=Love Snuck Up
TTITLE9=Out in the Rain
TTITLE10=Forever Has Come to an End
TTITLE11=Quecreek
TTITLE12=Take Me Back
TTITLE13=It's Been a Change
EXTD=Updated by Larry@LonghornCollision.com YEAR: 2004
EXTT0=
EXTT1=
EXTT2=
EXTT3=
EXTT4=
EXTT5=
EXTT6=
EXTT7=
EXTT8=
EXTT9=
EXTT10=
EXTT11=
EXTT12=
EXTT13=
PLAYORDER=
